<svg xmlns="http://www.w3.org/2000/svg" width="24" height="24" fill="none">
    <rect width="24" height="24" rx="1.628" fill="#3e63dd" />
    <path d="M5.226 9.61c-.402 0-.762-.081-1.082-.244a1.83 1.83 0 0 1-.757-.708c-.185-.31-.277-.681-.277-1.115v-.13c0-.434.092-.806.277-1.115a1.83 1.83 0 0 1 .757-.708c.32-.163.68-.244 1.082-.244.401 0 .762.081 1.082.244.32.163.573.399.757.708.184.31.277.68.277 1.115v.13c0 .434-.093.806-.277 1.115a1.83 1.83 0 0 1-.757.708c-.32.163-.68.244-1.082.244Zm0-.912c.315 0 .575-.1.781-.3.206-.207.31-.5.31-.88v-.08c0-.38-.104-.67-.31-.872-.2-.206-.461-.309-.781-.309-.315 0-.575.103-.781.31-.206.2-.31.49-.31.87v.082c0 .38.104.672.31.878.206.201.466.301.78.301Zm2.655 2.425V5.46h1.01v.488h.146c.092-.157.236-.296.431-.415.195-.125.475-.187.838-.187.326 0 .627.081.904.244.276.157.499.39.667.7.168.309.252.683.252 1.123v.13c0 .44-.084.814-.252 1.123a1.79 1.79 0 0 1-.667.708 1.797 1.797 0 0 1-.904.236c-.244 0-.45-.03-.618-.09a1.203 1.203 0 0 1-.399-.211 1.528 1.528 0 0 1-.236-.277h-.146v2.091H7.88Zm2.116-2.408c.32 0 .583-.1.79-.301.211-.206.317-.505.317-.895v-.082c0-.39-.106-.686-.318-.887a1.086 1.086 0 0 0-.789-.31c-.315 0-.578.104-.79.31-.21.2-.317.497-.317.887v.082c0 .39.106.689.318.895.211.2.474.3.789.3Zm2.65-.83v-.928h2.41v.928h-2.41ZM3.452 19.656v-7.595h4.883v1.302h-3.45v1.812H8.03v1.302H4.884v1.877H8.4v1.302H3.452Zm5.465 0v-7.595h2.724l1.508 6.619h.195v-6.62h1.41v7.596h-2.723l-1.508-6.619h-.195v6.619h-1.41Zm8.484 0v-6.293h-2.213V12.06h5.859v1.302h-2.214v6.293h-1.432Z" fill="#fff" />
</svg>